<?xml version="1.0" encoding="UTF-8"?>
<tsduck>
  <splice_information_table protocol_version="0" pts_adjustment="0" tier="0x0FFF">
    <metadata PID="200"/>
    <splice_null/>
  </splice_information_table>
  <splice_information_table protocol_version="0" pts_adjustment="0" tier="0x0FFF">
    <metadata PID="200"/>
    <bandwidth_reservation/>
  </splice_information_table>
  <splice_information_table protocol_version="0" pts_adjustment="0" tier="0x0FFF">
    <metadata PID="200"/>
    <time_signal pts_time="123,456,789"/>
  </splice_information_table>
  <splice_information_table protocol_version="0" pts_adjustment="0" tier="0x0FFF">
    <metadata PID="200"/>
    <time_signal/>
  </splice_information_table>
  <splice_information_table protocol_version="0" pts_adjustment="0" tier="0x0FFF">
    <metadata PID="200"/>
    <private_command identifier="0xDEADBEEF"/>
  </splice_information_table>
  <splice_information_table protocol_version="0" pts_adjustment="0" tier="0x0FFF">
    <metadata PID="200"/>
    <private_command identifier="0x12345678">
      98 76 54 32 10
    </private_command>
  </splice_information_table>
  <splice_information_table protocol_version="4" pts_adjustment="456,789" tier="0x0147">
    <metadata PID="200"/>
    <splice_null/>
  </splice_information_table>
  <splice_information_table protocol_version="0" pts_adjustment="0" tier="0x0FFF">
    <metadata PID="200"/>
    <splice_insert splice_event_id="0x12345678" splice_event_cancel="true"/>
  </splice_information_table>
  <splice_information_table protocol_version="0" pts_adjustment="0" tier="0x0FFF">
    <metadata PID="200"/>
    <splice_insert splice_event_id="0x12345678" splice_event_cancel="false" out_of_network="true" splice_immediate="true" unique_program_id="0x6789" avail_num="0" avails_expected="0"/>
  </splice_information_table>
  <splice_information_table protocol_version="0" pts_adjustment="0" tier="0x0FFF">
    <metadata PID="200"/>
    <splice_insert splice_event_id="0x12345678" splice_event_cancel="false" out_of_network="true" splice_immediate="false" unique_program_id="0x6754" avail_num="1" avails_expected="3" pts_time="789,456"/>
  </splice_information_table>
  <splice_information_table protocol_version="0" pts_adjustment="0" tier="0x0FFF">
    <metadata PID="200"/>
    <splice_insert splice_event_id="0x12345678" splice_event_cancel="false" out_of_network="true" splice_immediate="false" unique_program_id="0x6754" avail_num="1" avails_expected="3">
      <break_duration auto_return="false" duration="456"/>
      <component component_tag="1" pts_time="123,789"/>
      <component component_tag="2" pts_time="123,751"/>
      <component component_tag="3" pts_time="123,801"/>
    </splice_insert>
  </splice_information_table>
  <splice_information_table protocol_version="0" pts_adjustment="0" tier="0x0FFF">
    <metadata PID="200"/>
    <splice_schedule/>
  </splice_information_table>
  <splice_information_table protocol_version="0" pts_adjustment="0" tier="0x0FFF">
    <metadata PID="200"/>
    <splice_schedule>
      <splice_event splice_event_id="0x78912305" splice_event_cancel="true"/>
      <splice_event splice_event_id="0x78914861" splice_event_cancel="false" out_of_network="true" unique_program_id="0x4562" avail_num="0" avails_expected="0" utc_splice_time="2028-05-03 20:14:40">
        <break_duration auto_return="true" duration="64,565"/>
      </splice_event>
      <splice_event splice_event_id="0x78914861" splice_event_cancel="false" out_of_network="false" unique_program_id="0x4562" avail_num="0" avails_expected="0">
        <component component_tag="1" utc_splice_time="2028-05-03 20:14:33"/>
        <component component_tag="2" utc_splice_time="2028-05-03 20:14:52"/>
      </splice_event>
    </splice_schedule>
    <splice_avail_descriptor identifier="0x43554549" provider_avail_id="0x98765432"/>
    <splice_DTMF_descriptor identifier="0x43554549" preroll="8" DTMF="*1234#"/>
    <splice_time_descriptor identifier="0x43554549" TAI_seconds="1,525,032,891" TAI_ns="1,234" UTC_offset="21"/>
    <splice_segmentation_descriptor identifier="0x43554549" segmentation_event_id="0xDEADBEEF" segmentation_event_cancel="true"/>
    <splice_segmentation_descriptor identifier="0x43554549" segmentation_event_id="0xBEEFBEEF" segmentation_event_cancel="false" segmentation_type_id="0x10" segment_num="0" segments_expected="1">
      <segmentation_upid type="0x03">
        01 02 03 04
      </segmentation_upid>
    </splice_segmentation_descriptor>
    <splice_segmentation_descriptor identifier="0x43554549" segmentation_event_id="0x36985214" segmentation_event_cancel="false" web_delivery_allowed="true" no_regional_blackout="false" archive_allowed="false" device_restrictions="1" segmentation_duration="987,654" segmentation_type_id="0x34" segment_num="1" segments_expected="7" sub_segment_num="2" sub_segments_expected="4">
      <segmentation_upid type="0x0B">
        78 96 54 12 30
      </segmentation_upid>
      <component component_tag="1" pts_offset="123"/>
      <component component_tag="2" pts_offset="456"/>
    </splice_segmentation_descriptor>
  </splice_information_table>
  <splice_information_table protocol_version="0" pts_adjustment="0" tier="0x0FFF">
    <metadata PID="200"/>
    <splice_insert splice_event_id="0x00000001" splice_event_cancel="false" out_of_network="true" splice_immediate="true" unique_program_id="0x0001" avail_num="0" avails_expected="0">
      <break_duration auto_return="false" duration="6,750,000"/>
    </splice_insert>
    <splice_avail_descriptor identifier="0x43554549" provider_avail_id="0x00000012"/>
  </splice_information_table>
</tsduck>
